<?xml version="1.0" encoding="UTF-8" standalone="no"?>
<!-- Created with Inkscape (http://www.inkscape.org/) -->

<svg
   xmlns:dc="http://purl.org/dc/elements/1.1/"
   xmlns:cc="http://creativecommons.org/ns#"
   xmlns:rdf="http://www.w3.org/1999/02/22-rdf-syntax-ns#"
   xmlns:svg="http://www.w3.org/2000/svg"
   xmlns="http://www.w3.org/2000/svg"
   xmlns:sodipodi="http://sodipodi.sourceforge.net/DTD/sodipodi-0.dtd"
   xmlns:inkscape="http://www.inkscape.org/namespaces/inkscape"
   width="210mm"
   height="297mm"
   viewBox="0 0 210 297"
   version="1.1"
   id="svg8"
   inkscape:version="0.92.4 (5da689c313, 2019-01-14)"
   sodipodi:docname="disegno.svg">
  <defs
     id="defs2" />
  <sodipodi:namedview
     id="base"
     pagecolor="#ffffff"
     bordercolor="#666666"
     borderopacity="1.0"
     inkscape:pageopacity="0.0"
     inkscape:pageshadow="2"
     inkscape:zoom="0.7"
     inkscape:cx="17.574962"
     inkscape:cy="698.9709"
     inkscape:document-units="mm"
     inkscape:current-layer="layer1"
     showgrid="false"
     inkscape:window-width="1920"
     inkscape:window-height="1017"
     inkscape:window-x="-8"
     inkscape:window-y="-8"
     inkscape:window-maximized="1" />
  <metadata
     id="metadata5">
    <rdf:RDF>
      <cc:Work
         rdf:about="">
        <dc:format>image/svg+xml</dc:format>
        <dc:type
           rdf:resource="http://purl.org/dc/dcmitype/StillImage" />
        <dc:title></dc:title>
      </cc:Work>
    </rdf:RDF>
  </metadata>
  <g
     inkscape:label="Livello 1"
     inkscape:groupmode="layer"
     id="layer1">
    <path
       style="opacity:1;fill:#ebebeb;fill-opacity:1;stroke:#010101;stroke-width:7.55905533;stroke-linejoin:round;stroke-miterlimit:4;stroke-dasharray:none;stroke-opacity:1"
       d="M 174.28516 131.0918 L 174.28516 131.35938 A 95.28384 93.140972 0 0 0 84.716797 224.30273 A 95.28384 93.140972 0 0 0 180 317.44336 A 95.28384 93.140972 0 0 0 235.79492 299.66211 L 410.5918 299.66211 A 95.283833 93.140972 0 0 0 466.42773 317.44336 A 95.283833 93.140972 0 0 0 561.71289 224.30273 A 95.283833 93.140972 0 0 0 477.14258 131.80469 L 477.14258 131.0918 L 174.28516 131.0918 z "
       transform="scale(0.26458333)"
       id="rect815"
       inkscape:export-xdpi="95"
       inkscape:export-ydpi="95" />
    <circle
       style="opacity:1;fill:#0300ff;fill-opacity:0.17004047;stroke:#010101;stroke-width:2;stroke-linejoin:round;stroke-miterlimit:4;stroke-dasharray:none;stroke-opacity:1"
       id="path856"
       cx="43.467258"
       cy="110.27977"
       r="15.292863"
       inkscape:export-xdpi="95"
       inkscape:export-ydpi="95" />
    <circle
       style="opacity:1;fill:#ff0028;fill-opacity:0.2348178;stroke:#010101;stroke-width:2;stroke-linejoin:round;stroke-miterlimit:4;stroke-dasharray:none;stroke-opacity:1"
       id="path856-3"
       cx="175.38095"
       cy="102.34227"
       r="15.292863"
       inkscape:export-xdpi="95"
       inkscape:export-ydpi="95" />
    <circle
       style="opacity:1;fill:#0038ff;fill-opacity:0.98785424;stroke:#010101;stroke-width:2;stroke-linejoin:round;stroke-miterlimit:4;stroke-dasharray:none;stroke-opacity:1"
       id="path873"
       cx="47.625004"
       cy="149.96727"
       r="5.6190209"
       inkscape:export-xdpi="95"
       inkscape:export-ydpi="95" />
    <circle
       style="opacity:1;fill:#ff2c00;fill-opacity:1;stroke:#010101;stroke-width:2;stroke-linejoin:round;stroke-miterlimit:4;stroke-dasharray:none;stroke-opacity:1"
       id="path873-2"
       cx="127.37798"
       cy="153.74702"
       r="5.6190214"
       inkscape:export-xdpi="95"
       inkscape:export-ydpi="95" />
    <rect
       style="opacity:1;fill:#ff0028;fill-opacity:1;stroke:#010101;stroke-width:1.16915953;stroke-linejoin:round;stroke-miterlimit:4;stroke-dasharray:none;stroke-opacity:1"
       id="rect903"
       width="17.083817"
       height="9.9022694"
       x="88.408981"
       y="102.15363"
       ry="4.9511347"
       inkscape:export-xdpi="95"
       inkscape:export-ydpi="95" />
    <rect
       style="opacity:1;fill:#ff0028;fill-opacity:1;stroke:#010101;stroke-width:1.16915965;stroke-linejoin:round;stroke-miterlimit:4;stroke-dasharray:none;stroke-opacity:1"
       id="rect903-8"
       width="17.083817"
       height="9.9022694"
       x="125.37576"
       y="106.31066"
       ry="4.9511347"
       inkscape:export-xdpi="95"
       inkscape:export-ydpi="95" />
    <path
       style="fill:none;stroke:#000000;stroke-width:2;stroke-linecap:butt;stroke-linejoin:miter;stroke-miterlimit:4;stroke-dasharray:none;stroke-opacity:1"
       d="m 126.24397,34.873324 c 0.12599,-0.629959 0.3287,-1.249336 0.37797,-1.889879 0.0773,-1.004969 0,-2.015873 0,-3.023811 0,-2.015871 0,-4.031745 0,-6.047619 0,-1.033102 -0.0891,0.556157 0.75596,-1.133927 0.11269,-0.225383 -0.13978,-0.546291 0,-0.755954 0.15627,-0.234411 0.55674,-0.178763 0.75595,-0.377976 0.19921,-0.19921 0.2217,-0.521542 0.37798,-0.755952 0.0988,-0.148254 0.25198,-0.251984 0.37797,-0.377976 0.12599,-0.125992 0.20894,-0.32163 0.37798,-0.377975 0.23905,-0.07969 0.5169,0.07968 0.75595,0 0.53454,-0.178181 0.98875,-0.546693 1.5119,-0.755955 0.11699,-0.04679 0.25199,0 0.37798,0 0.25198,0 0.50397,0 0.75595,0 0.37798,0 0.75596,0 1.13393,0 0.25199,0 0.50886,-0.04942 0.75595,0 1.34088,0.268177 1.24087,0.607066 2.64584,1.13393 0.4864,0.182401 1.04727,0.145659 1.5119,0.377976 0.31874,0.159369 0.47087,0.542137 0.75595,0.755952 0.45077,0.338074 1.02875,0.466058 1.51191,0.755954 0.38953,0.23372 0.72762,0.552794 1.13393,0.755952 0.11269,0.05634 0.26528,-0.05635 0.37797,0 1.15267,0.576331 -0.69129,0.299646 1.13393,0.755951 0.24446,0.06112 0.5169,-0.07968 0.75596,0 0.16903,0.05635 0.22972,0.279141 0.37797,0.377976 0.23441,0.156274 0.51438,0.233029 0.75595,0.377976 0.38954,0.233722 0.71215,0.587243 1.13393,0.755954 0.23396,0.09358 0.5115,-0.06112 0.75595,0 0.54663,0.136657 0.97737,0.577773 1.51191,0.755952 0.11953,0.03984 0.28889,-0.08909 0.37798,0 0.0891,0.08909 -0.11269,0.32163 0,0.377976 0.0889,0.04444 1.2636,0 1.5119,0 0.30161,0 1.66312,0.07559 1.88988,0 1.07993,-0.359977 0.55797,-0.269984 1.13393,-1.133928 0.19767,-0.29651 0.59658,-0.437216 0.75595,-0.755954 0.17818,-0.356359 0.25199,-0.755952 0.37798,-1.133927 0.12599,-0.377976 0.25198,-0.755952 0.37797,-1.133928 0.126,-0.377978 0.31248,-0.740928 0.37798,-1.13393 0.0621,-0.372832 -0.0621,-0.761095 0,-1.133927 0.0655,-0.393002 0.29984,-0.743244 0.37798,-1.13393 0.0494,-0.24709 -0.0611,-0.511492 0,-0.755952 0.0683,-0.273315 0.30964,-0.482637 0.37797,-0.755953 0.12872,-0.514855 -0.15242,-1.810585 0,-2.267856 0.0564,-0.169037 0.32163,-0.208941 0.37798,-0.377977 0.15937,-0.478106 -0.12223,-1.022983 0,-1.511904 0.0683,-0.273316 0.25198,-0.503969 0.37798,-0.755953 0.25198,-0.503968 0.54669,-0.988751 0.75595,-1.511905 0.14797,-0.369925 0.23,-0.764003 0.37797,-1.1339278 0.10464,-0.261577 0.28889,-0.488683 0.37798,-0.755952 0.0398,-0.119527 -0.0564,-0.265286 0,-0.377977 0.0362,-0.07235 1.43955,-1.475728 1.51191,-1.511904 0.22538,-0.112691 0.53057,0.11269 0.75595,0 0.15937,-0.07968 0.2186,-0.298292 0.37797,-0.377977 0.11269,-0.05635 0.25199,0 0.37798,0 0.25199,0 0.50397,0 0.75595,0 0.25199,0 0.50397,0 0.75595,0 0.126,0 0.26529,-0.05635 0.37798,0 0.81263,0.406312 1.48879,1.044464 2.26786,1.511905 0.48316,0.289895 1.04308,0.443405 1.5119,0.755953 0.86493,0.576616 -0.23634,0.299194 1.13393,0.755952 0.11953,0.03984 0.26529,-0.05635 0.37798,0 0.15937,0.07968 0.20894,0.3216308 0.37797,0.3779758 0.20321,0.06773 1.1919,0 1.51191,0 0.21514,0 1.47321,0.0258 1.5119,0 0.23441,-0.156274 0.14357,-0.5996778 0.37798,-0.7559518 0.20966,-0.139776 0.54629,0.139775 0.75595,0 0.46882,-0.312548 0.35753,-1.113483 0.75595,-1.511905 0.19922,-0.199211 0.58692,-0.152595 0.75596,-0.377976 0.23905,-0.318738 0.19979,-0.777569 0.37797,-1.133929 0.57633,-1.152661 0.29965,0.691298 0.75596,-1.133928 0.57684,-2.307379 -0.99176,1.30616 0.37797,-1.889881 0.22196,-0.517896 0.60116,-0.970131 0.75595,-1.511905 0.10384,-0.3634332 -0.0621,-0.7610951 0,-1.13392871 0.0655,-0.3930007 0.31248,-0.7409275 0.37798,-1.1339285 0.10356,-0.6213892 -0.15279,-1.27872919 0,-1.88988119 0.0683,-0.273315 0.28889,-0.488682 0.37798,-0.755952 0.0398,-0.119527 0,-0.251984 0,-0.377976 0.12599,-0.251984 0.28888,-0.488683 0.37797,-0.755953 0.05,-0.150039 -0.0483,-1.511904 0,-1.511904 0.12599,0 -0.12599,0.377976 0,0.377976 0.70564,0 0.22935,-1.214656 0.37798,-1.511905 0.0797,-0.159369 0.32163,-0.20894 0.37797,-0.377976 0.0677,-0.203202 0,-1.191891 0,-1.511905 0,-0.251984 0,-1.007936 0,-0.755952 0,0.251984 0,1.007936 0,0.755952 0,-0.881944 0,-1.7638888 0,-2.6458328"
       id="path994"
       inkscape:connector-curvature="0"
       inkscape:export-xdpi="95"
       inkscape:export-ydpi="95" />
  </g>
</svg>
